<svg version="1.2" xmlns="http://www.w3.org/2000/svg" viewBox="0 0 4000 4000" width="800" height="800"><defs><clipPath clipPathUnits="userSpaceOnUse" id="cp1"><path d="m2493.13 1750.64c-34.72 63.6-67.91 124.21-102.9 181.9-81.17 133.78-172.07 251.76-314.49 354.32-38.64 27.83-49.24 19.3-5.14 55.48 281.65 231.1 819.95-267.58 748.39-542.84-22.68-87.23-86.37-107.86-158.12-143.25-48.91 34.91-104.54 67.21-167.74 94.39z"/></clipPath><linearGradient id="P" gradientUnits="userSpaceOnUse"/><linearGradient id="g1" x2="1" href="#P" gradientTransform="matrix(-1246.561,1674.908,-1660.32,-1235.704,3658.889,1614.675)"><stop stop-color="#26751e"/><stop offset="1" stop-color="#fda04b"/></linearGradient><clipPath clipPathUnits="userSpaceOnUse" id="cp2"><path d="m955.8 1877.46c-115.71 150.24-61.64 109.73-288.28 289.26-24.01 19.03-44.85 29.45-11.56 44.9 220.57 102.39 463.79-84.92 495.33-252.15-0.34-57.99-36.79-80.93-75.95-114.34-36.02 14.03-75.82 25.37-119.54 32.33z"/></clipPath><linearGradient id="g2" x2="1" href="#P" gradientTransform="matrix(-754.963,542.224,-531.676,-740.276,1328.196,2146.47)"><stop stop-color="#26751e"/><stop offset="1" stop-color="#fda04b"/></linearGradient><clipPath clipPathUnits="userSpaceOnUse" id="cp3"><path d="m2276.33 1824c100.62 49.62 189.93 78.55 221.73 200.88 68.75-56.05 128.03-126.3 174.72-212.81 66.09-122.44 155.56-203.07 305.15-217.51 0 0 269.77-41.12 368.46-212.19 0 0 75.67-190.81-113.49-235.22-187.3-42.43-358.12-2.85-492.42 111.84-30.29 30.85-145.25 337.4-464.15 565.01zm-379.53 387.43c49.07-80.88 95.6-165.89 144.3-255.06-229.9 98.87-531.24 149.45-924.73 90.17 233.68 97.45 515.41 166.75 780.43 164.89z"/></clipPath><linearGradient id="g3" x2="1" href="#P" gradientTransform="matrix(1569.105,-317.237,197.469,976.717,2024.84,1100.248)"><stop stop-color="#26751e"/><stop offset="1" stop-color="#fda04b"/></linearGradient><clipPath clipPathUnits="userSpaceOnUse" id="cp4"><path d="m1116.37 2046.54c393.49 59.28 694.83 8.7 924.73-90.17 88.63-38.12 166.65-83.42 235.23-132.37 318.9-227.61 433.86-534.16 464.15-565.01q-8.21 7.01-16.24 14.4c-230.78 212.32-909.46-530.3-1829.71 532.28-66.17 76.39-62.26 98.49 37.59 152.94 56.66 30.9 118.56 60.53 184.25 87.93z"/></clipPath><linearGradient id="g4" x2="1" href="#P" gradientTransform="matrix(-2713.992,1426.183,-1284.722,-2444.794,3217.158,1608.098)"><stop stop-color="#26751e"/><stop offset="1" stop-color="#fda04b"/></linearGradient><clipPath clipPathUnits="userSpaceOnUse" id="cp5"><path d="m2041.1 1956.37c-48.7 89.17-95.23 174.18-144.3 255.06-113.82 187.61-241.29 353.05-441.02 496.89-54.18 39.02-69.04 27.05-7.21 77.79 394.98 324.07 1149.84-375.22 1049.49-761.23-31.8-122.33-121.11-151.26-221.73-200.88-68.58 48.95-146.6 94.25-235.23 132.37z"/></clipPath><linearGradient id="g5" x2="1" href="#P" gradientTransform="matrix(-1318.376,1737.942,-1723.767,-1307.623,3181.816,2442.355)"><stop stop-color="#26751e"/><stop offset="1" stop-color="#fda04b"/></linearGradient><clipPath clipPathUnits="userSpaceOnUse" id="cp6"><path d="m2493.13 1750.64c-34.72 63.6-67.91 124.21-102.9 181.9-81.17 133.78-172.07 251.76-314.49 354.32-38.64 27.83-49.24 19.3-5.14 55.48 281.65 231.1 819.95-267.58 748.39-542.84-22.68-87.23-86.37-107.86-158.12-143.25-48.91 34.91-104.54 67.21-167.74 94.39z"/></clipPath><clipPath clipPathUnits="userSpaceOnUse" id="cp7"><path d="m955.8 1877.46c-115.71 150.24-61.64 109.73-288.28 289.26-24.01 19.03-44.85 29.45-11.56 44.9 220.57 102.39 463.79-84.92 495.33-252.15-0.34-57.99-36.79-80.93-75.95-114.34-36.02 14.03-75.82 25.37-119.54 32.33z"/></clipPath><clipPath clipPathUnits="userSpaceOnUse" id="cp8"><path d="m2276.33 1824c100.62 49.62 189.93 78.55 221.73 200.88 68.75-56.05 128.03-126.3 174.72-212.81 66.09-122.44 155.56-203.07 305.15-217.51 0 0 269.77-41.12 368.46-212.19 0 0 75.67-190.81-113.49-235.22-187.3-42.43-358.12-2.85-492.42 111.84-30.29 30.85-145.25 337.4-464.15 565.01zm-379.53 387.43c49.07-80.88 95.6-165.89 144.3-255.06-229.9 98.87-531.24 149.45-924.73 90.17 233.68 97.45 515.41 166.75 780.43 164.89z"/></clipPath><clipPath clipPathUnits="userSpaceOnUse" id="cp9"><path d="m1116.37 2046.54c393.49 59.28 694.83 8.7 924.73-90.17 88.63-38.12 166.65-83.42 235.23-132.37 318.9-227.61 433.86-534.16 464.15-565.01q-8.21 7.01-16.24 14.4c-230.78 212.32-909.46-530.3-1829.71 532.28-66.17 76.39-62.26 98.49 37.59 152.94 56.66 30.9 118.56 60.53 184.25 87.93z"/></clipPath><clipPath clipPathUnits="userSpaceOnUse" id="cp10"><path d="m2041.1 1956.37c-48.7 89.17-95.23 174.18-144.3 255.06-113.82 187.61-241.29 353.05-441.02 496.89-54.18 39.02-69.04 27.05-7.21 77.79 394.98 324.07 1149.84-375.22 1049.49-761.23-31.8-122.33-121.11-151.26-221.73-200.88-68.58 48.95-146.6 94.25-235.23 132.37z"/></clipPath></defs><style>.a{fill:#25d366}.b{fill:url(#g1)}.c{fill:#004600}.d{fill:url(#g2)}.e{fill:url(#g3)}.f{fill:url(#g4)}.g{fill:url(#g5)}.h{fill:#12120e}.i{fill:#28761f}.j{fill:#26751e}.k{fill:#f9b495}.l{fill:#201f08}.m{fill:#298d11}.n{fill:#74a08b}.o{fill:#92c588}.p{fill:#528a72}.q{fill:#88a98e}.r{fill:#163832}</style><path class="a" d="m-1167.9 1662.8h-4261.8v-4470.3h4261.8z"/><g clip-path="url(#cp1)"><path class="b" d="m2026.5 2573.4h864.1v-917.1h-864.1z"/><path class="c" d="m-114.2 7341.1h5734.9v-4244.9h-5734.9z"/></g><g clip-path="url(#cp2)"><path class="d" d="m622.7 2314h528.6v-468.9h-528.6z"/></g><g clip-path="url(#cp3)"><path class="e" d="m1116.4 2213.3h2305.7v-1108.6h-2305.7z"/></g><g clip-path="url(#cp4)"><path class="f" d="m828.4 2105.8h1912.1v-1362.7h-1912.1z"/></g><g clip-path="url(#cp5)"><path class="g" d="m1386.7 3110.2h1211.7v-1286.2h-1211.7z"/></g><path class="h" d="m2739.9 1259.6c-31 33.8-146.5 338.1-463.6 564.4 27.1 13.4 53.4 25.2 78 37.8 313.2-269.2 380.7-578 385.6-602.2zm-698.8 696.8c-229.9 98.8-531.2 149.4-924.7 90.1 167.8 70 360.4 125.5 553.9 150.5 106.8-25.8 203.2-58 290.1-94.6 26.8-47.4 53.4-96.1 80.7-146z"/><path class="i" d="m1411.4 2738.5c969.7-183 864.9-914.5 864.9-914.5-68.6 49-146.6 94.2-235.2 132.4-27.3 49.9-53.9 98.6-80.7 146-21 37.1-42 73.5-63.6 109-113.8 187.6-241.3 353.1-441 496.9-22.4 16.1-38 23.5-44.4 30.2z"/><path class="j" d="m3349.3 1234.3c0 0-516.1 27.7-935.7 663.3 38.6 28.7 68.6 66.4 84.5 127.3 68.7-56.1 128-126.3 174.7-212.8 66.1-122.5 155.5-203.1 305.1-217.5 0 0 269.8-41.2 368.5-212.2 0 0 31.6-79.7 2.9-148.1z"/><path class="k" d="m1306.4 1429.9c0 0 279.2 229.6 1037.9 99.6 57.6-9.8 117.9-21.7 181-36q42.6-9.6 87-20.7c70.1-104.4 107.4-187.3 124.6-210.7q-6.4 5.5-12.7 11.3-8.2 7.6-17.2 13.6c-25.1 16.7-54.6 24.7-88.2 26.6-243.8 13.4-707-292.3-1312.4 116.3z"/><path class="l" d="m2529.1 2296.9c51.5-39 17.4-250.9 17.4-250.9 137.7-108.5 195.6-300 206.8-341.2q-1.7-1.2-3.4-2.3c-29.4 31-54.6 67.9-77.1 109.6-46.7 86.5-106 156.7-174.7 212.8 25.2 97-3.6 213.9-67.2 329.3 32-15.2 63.7-33.6 94.3-54.6q0.7-0.5 1.5-1 1.2-0.8 2.4-1.7z"/><g clip-path="url(#cp6)"><path class="m" d="m2026.5 2573.4h864.1v-917.1h-864.1z"/><path class="n" d="m2493.1 1750.6c-34.7 63.6-67.9 124.3-102.9 181.9-81.1 133.8-172 251.8-314.5 354.4-38.6 27.8-49.2 19.3-5.1 55.4 281.7 231.1 820-267.5 748.4-542.8-22.7-87.2-86.4-107.9-158.1-143.2-48.9 34.9-104.6 67.2-167.8 94.3z"/></g><g clip-path="url(#cp7)"><path class="o" d="m622.7 2314h528.6v-468.9h-528.6z"/><path class="o" d="m955.8 1877.5c-115.7 150.2-61.6 109.7-288.3 289.2-24 19-44.8 29.5-11.5 44.9 220.5 102.4 463.7-84.9 495.3-252.1-0.4-58-36.8-81-76-114.4-36 14.1-75.8 25.4-119.5 32.4z"/></g><g clip-path="url(#cp8)"><path class="o" d="m1116.4 2213.3h2305.7v-1108.6h-2305.7z"/></g><g clip-path="url(#cp9)"><path class="o" d="m828.4 2105.8h1912.1v-1362.7h-1912.1z"/><path class="o" d="m1110.4 2046.5c393.5 59.3 694.8 8.7 924.7-90.1 88.6-38.2 166.6-83.4 235.2-132.4 318.9-227.6 433.9-534.2 464.2-565q-8.2 7-16.3 14.4c-230.7 212.3-909.4-530.3-1829.7 532.3-66.1 76.4-62.2 98.5 37.6 152.9 56.7 30.9 118.6 60.5 184.3 87.9z"/></g><g clip-path="url(#cp10)"><path class="o" d="m1386.7 3110.2h1211.7v-1286.2h-1211.7z"/><path class="o" d="m2041.1 1956.4c-48.7 89.1-95.2 174.2-144.3 255-113.8 187.6-241.3 353.1-441 496.9-54.2 39-69.1 27.1-7.2 77.8 394.9 324.1 1149.8-375.2 1049.5-761.2-31.8-122.3-121.1-151.3-221.8-200.9-68.6 49-146.6 94.2-235.2 132.4z"/></g><path class="n" d="m1411.4 2738.5c969.7-183 864.9-914.5 864.9-914.5-68.6 49-146.6 94.2-235.2 132.4-27.3 49.9-53.9 98.6-80.7 146-21 37.1-42 73.5-63.6 109-113.8 187.6-241.3 353.1-441 496.9-22.4 16.1-38 23.5-44.4 30.2z"/><path class="n" d="m3349.3 1234.3c0 0-516.1 27.7-935.7 663.3 38.6 28.7 68.6 66.4 84.5 127.3 68.7-56.1 128-126.3 174.7-212.8 66.1-122.5 155.5-203.1 305.1-217.5 0 0 269.8-41.2 368.5-212.2 0 0 31.6-79.7 2.9-148.1z"/><path class="p" d="m1306.4 1429.9c0 0 279.2 229.6 1037.9 99.6 57.6-9.8 117.9-21.7 181-36q42.6-9.6 87-20.7c70.1-104.4 107.4-187.3 124.6-210.7q-6.4 5.5-12.7 11.3-8.2 7.6-17.2 13.6c-25.1 16.7-54.6 24.7-88.2 26.6-243.8 13.4-707-292.3-1312.4 116.3z"/><path class="q" d="m2732.3 1269.1c-929.8 1005.5-1696 387.9-1696 387.9-46.6 45.9-93.9 96.3-141.8 151.7-59.8 69.1-62.3 93.8 11.7 138.2 7.8 4.6 16.4 9.5 25.9 14.7 56.7 30.9 118.6 60.5 184.3 87.9q0.3 0.1 0.6 0.1c393.2 59.2 694.3 8.6 924.1-90.2 88.6-38.2 166.6-83.4 235.2-132.4 317.1-226.3 432.6-530.6 463.6-564.4q0.3-0.3 0.6-0.6-4.1 3.5-8.2 7.1z"/><path class="r" d="m2529.1 2296.9c51.5-39 17.4-250.9 17.4-250.9 137.7-108.5 195.6-300 206.8-341.2q-1.7-1.2-3.4-2.3c-29.4 31-54.6 67.9-77.1 109.6-46.7 86.5-106 156.7-174.7 212.8 25.2 97-3.6 213.9-67.2 329.3 32-15.2 63.7-33.6 94.3-54.6q0.7-0.5 1.5-1 1.2-0.8 2.4-1.7z"/><path class="r" d="m2556.8 1486.3c-428.4 632.9-1191 590.5-1391.2 567.2 369.5 48 655.3-2.4 875.5-97.1 88.6-38.2 166.6-83.4 235.2-132.4 317.1-226.3 432.6-530.6 463.6-564.4q0.3-0.3 0.6-0.6-1.8 1.5-3.6 3.1-6.4 5.5-12.7 11.3c-18.7 17.2-40.4 28.2-64.9 34.3-31.3 64.8-65.6 124.2-102.5 178.6z"/><path class="o" d="m2041.1 1956.4c-220.2 94.7-506 145.1-875.5 97.1q-24-3.2-48.6-6.9-0.3 0-0.6-0.1 0.3 0.2 0.5 0.3c128 53.3 270.4 98.2 416.6 127.6 173.1-20.4 322.6-61.6 451.3-115.6 113.7-47.7 211.3-105.4 294.8-167.8q26.8-20 51.7-40.6c321.3-265.6 408.6-590.8 408.6-590.8-31 33.8-146.5 338.1-463.6 564.4-68.6 49-146.6 94.2-235.2 132.4z"/><path class="n" d="m998.3 2040.6c-103.4 215.3-359.5 155.6-359.5 155.6 0.9 4.6 6 9.2 17.2 14.4 162.4 75.4 337.1-6.3 430.5-121.4 11.4-14 21.6-28.6 30.4-43.4q-0.2-0.1-0.5-0.3c-35-14.6-69-29.8-101.6-45.5-4.9 14.5-10.5 28.1-16.5 40.6z"/><path class="r" d="m1984.8 2058.8c0 0-23.6 25.2-52.6 55.2-37.1 38.4-82.9 84.9-99.1 96.5q32 1.2 63.7 0.9c29.9-49.3 58.9-100.2 88-152.6z"/><path class="r" d="m2413.6 1897.6c38.6 28.7 68.6 66.4 84.5 127.3q2.9-2.4 5.8-4.8c-12.6-62.4-44.6-106.8-80-138q-1.3-1.1-2.6-2.2c-16.2-13.9-32.9-25-48.9-34-7.7-4.3-15.2-8.1-22.3-11.4-33.8-15.7-59.5-20.9-59.5-20.9q-7.1 5.3-14.3 10.4c18.8 9.3 37.2 17.8 55 26.4 29.1 14.1 56.4 28.3 80.5 45.9q0.9 0.6 1.8 1.3z"/></svg>